<?xml version="1.0" encoding="UTF-8" standalone="no"?>
<!DOCTYPE svg PUBLIC "-//W3C//DTD SVG 1.1//EN" "http://www.w3.org/Graphics/SVG/1.1/DTD/svg11.dtd">
<!-- Created with Vectornator (http://vectornator.io/) -->
<svg height="100%" stroke-miterlimit="10" style="fill-rule:nonzero;clip-rule:evenodd;stroke-linecap:round;stroke-linejoin:round;" version="1.1" viewBox="0 0 1190.7 841.995" width="100%" xml:space="preserve" xmlns="http://www.w3.org/2000/svg" xmlns:vectornator="http://vectornator.io" xmlns:xlink="http://www.w3.org/1999/xlink">
<defs>
<clipPath id="TextBounds">
<rect height="19" width="29" x="192.913" y="338.794"/>
</clipPath>
<clipPath id="TextBounds_2">
<rect height="26.4089" width="107.412" x="376.725" y="197.228"/>
</clipPath>
<clipPath id="TextBounds_3">
<rect height="26.4089" width="107.412" x="733.233" y="195.263"/>
</clipPath>
<clipPath id="TextBounds_4">
<rect height="16" width="55" x="408.777" y="252.065"/>
</clipPath>
<clipPath id="TextBounds_5">
<rect height="16" width="55" x="354.63" y="336.316"/>
</clipPath>
<clipPath id="TextBounds_6">
<rect height="16" width="55" x="481.069" y="334.069"/>
</clipPath>
<clipPath id="TextBounds_7">
<rect height="16" width="55" x="413.953" y="525.93"/>
</clipPath>
<clipPath id="TextBounds_8">
<rect height="21.4419" width="73.6314" x="755.773" y="330.673"/>
</clipPath>
</defs>
<g id="图层-1" vectornator:layerName="图层 1">
<path d="M112.302 138.031L1011.75 138.031L1011.75 629.486L112.302 629.486L112.302 138.031Z" fill="#ffffff" fill-rule="nonzero" opacity="1" stroke="#000000" stroke-linecap="butt" stroke-linejoin="round" stroke-width="2"/>
<path d="M171.027 331.39L244.347 331.39L244.347 364.657L171.027 364.657L171.027 331.39Z" fill="none" opacity="1" stroke="#000000" stroke-dasharray="4.0" stroke-linecap="butt" stroke-linejoin="round" stroke-width="2"/>
<g fill="#000000" opacity="1" stroke="none">
<path clip-path="url(#TextBounds)" d="M196.506 342.147C196.402 343.005 196.298 343.837 196.168 344.656L195.024 344.656L195.024 345.553L196.012 345.553C195.778 346.866 195.518 348.088 195.232 349.219C195.869 349.765 196.454 350.285 196.987 350.779C196.467 351.793 195.778 352.651 194.933 353.366L195.531 354.107C196.376 353.353 197.078 352.456 197.65 351.416C198.079 351.832 198.456 352.235 198.768 352.612L199.405 351.884C199.041 351.494 198.599 351.039 198.053 350.545C198.69 349.037 199.067 347.256 199.171 345.202L199.171 344.656L197.078 344.656C197.182 343.915 197.299 343.109 197.416 342.225L196.506 342.147ZM197.364 349.934C197 349.622 196.61 349.284 196.194 348.946C196.454 348.049 196.701 346.918 196.935 345.553L198.287 345.553C198.183 347.204 197.884 348.66 197.364 349.934ZM204.527 347.373L201.524 347.373L201.524 346.19L204.527 346.19L204.527 347.373ZM201.524 345.41L201.524 344.214L204.527 344.214L204.527 345.41L201.524 345.41ZM201.524 343.382L201.524 342.199L200.64 342.199L200.64 343.382L199.47 343.382L199.47 344.214L200.64 344.214L200.64 348.179L202.564 348.179L202.564 349.323L199.249 349.323L199.249 350.181L201.758 350.181C201.173 351.195 200.263 352.04 199.041 352.703L199.548 353.535C200.874 352.664 201.836 351.546 202.447 350.181L202.564 350.181L202.564 354.029L203.5 354.029L203.5 350.181L203.695 350.181C204.215 351.403 205.086 352.521 206.334 353.535L206.971 352.742C205.775 351.988 204.904 351.13 204.371 350.181L206.828 350.181L206.828 349.323L203.5 349.323L203.5 348.179L205.424 348.179L205.424 344.214L206.542 344.214L206.542 343.382L205.424 343.382L205.424 342.199L204.527 342.199L204.527 343.382L201.524 343.382Z"/>
<path clip-path="url(#TextBounds)" d="M209.506 347.087L209.506 354.107L210.429 354.107L210.429 345.579C210.936 344.617 211.352 343.59 211.69 342.511L210.845 342.121C210.247 344.266 209.272 346.164 207.92 347.828L208.193 348.764C208.661 348.231 209.103 347.672 209.506 347.087ZM211.469 344.396L211.469 345.306L214.004 345.306C213.38 347.698 212.353 349.648 210.897 351.156L211.378 351.962C212.977 350.233 214.108 348.01 214.758 345.306L214.914 345.306L214.914 350.519L212.925 350.519L212.925 351.416L214.914 351.416L214.914 354.094L215.837 354.094L215.837 351.416L217.852 351.416L217.852 350.519L215.837 350.519L215.837 345.306L215.993 345.306C216.591 347.711 217.696 349.882 219.282 351.806L219.893 351.039C218.385 349.362 217.332 347.451 216.734 345.306L219.386 345.306L219.386 344.396L215.837 344.396L215.837 342.16L214.914 342.16L214.914 344.396L211.469 344.396Z"/>
</g>
<path d="M275.258 177.042L596.381 177.042L596.381 590.781L275.258 590.781L275.258 177.042Z" fill="none" opacity="1" stroke="#000000" stroke-dasharray="4.0" stroke-linecap="butt" stroke-linejoin="round" stroke-width="2"/>
<path d="M622.984 177.297L944.107 177.297L944.107 591.036L622.984 591.036L622.984 177.297Z" fill="none" opacity="1" stroke="#000000" stroke-dasharray="4.0" stroke-linecap="butt" stroke-linejoin="round" stroke-width="2"/>
<g fill="#000000" opacity="1" stroke="none">
<path clip-path="url(#TextBounds_2)" d="M403.899 201.252L402.477 201.504C402.837 202.08 403.179 202.728 403.467 203.43L396.771 203.43L396.771 208.704C396.735 212.34 396.195 215.166 395.187 217.218L396.249 218.172C397.419 215.796 398.031 212.646 398.103 208.704L398.103 204.672L411.441 204.672L411.441 203.43L404.889 203.43C404.565 202.62 404.241 201.9 403.899 201.252Z"/>
<path clip-path="url(#TextBounds_2)" d="M427.353 211.386L415.617 211.386L415.617 218.01L416.931 218.01L416.931 217.056L426.039 217.056L426.039 218.01L427.353 218.01L427.353 211.386ZM416.931 215.832L416.931 212.628L426.039 212.628L426.039 215.832L416.931 215.832ZM416.697 205.302L420.999 205.302L420.999 208.218L413.295 208.218L413.295 209.496L429.567 209.496L429.567 208.218L422.313 208.218L422.313 205.302L428.199 205.302L428.199 204.06L422.313 204.06L422.313 201.504L420.999 201.504L420.999 204.06L417.471 204.06C417.831 203.394 418.119 202.692 418.353 201.936L417.057 201.792C416.481 203.682 415.365 205.284 413.745 206.58L414.519 207.606C415.365 206.904 416.085 206.13 416.697 205.302Z"/>
<path clip-path="url(#TextBounds_2)" d="M432.177 202.332L432.177 203.592L438.693 203.592L438.693 210.396L431.457 210.396L431.457 211.638L438.693 211.638L438.693 218.01L440.025 218.01L440.025 211.638L447.405 211.638L447.405 210.396L440.025 210.396L440.025 203.592L446.721 203.592L446.721 202.332L432.177 202.332ZM434.373 204.744L433.167 205.338C433.851 206.544 434.499 207.912 435.111 209.46L436.317 208.866C435.705 207.372 435.057 206.004 434.373 204.744ZM444.579 204.654C444.057 206.022 443.355 207.39 442.473 208.794L443.625 209.388C444.507 208.02 445.227 206.634 445.767 205.212L444.579 204.654Z"/>
<path clip-path="url(#TextBounds_2)" d="M463.443 210.54L451.419 210.54L451.419 218.046L452.733 218.046L452.733 217.146L462.129 217.146L462.129 218.046L463.443 218.046L463.443 210.54ZM452.733 215.904L452.733 211.782L462.129 211.782L462.129 215.904L452.733 215.904ZM450.141 208.686C454.821 208.506 459.051 208.254 462.849 207.912C463.281 208.596 463.731 209.298 464.181 210.054L465.441 209.442C464.109 207.264 462.669 205.266 461.121 203.466L459.951 204.024C460.671 204.852 461.373 205.77 462.057 206.742C458.961 207.03 455.685 207.264 452.229 207.408C453.849 206.076 455.487 204.24 457.107 201.936L455.775 201.486C453.435 204.924 451.473 206.922 449.889 207.462L450.141 208.686Z"/>
</g>
<g fill="#000000" opacity="1" stroke="none">
<path clip-path="url(#TextBounds_3)" d="M765.412 210.483L755.152 210.483L755.152 216.117L756.412 216.117L756.412 215.343L764.152 215.343L764.152 216.117L765.412 216.117L765.412 210.483ZM756.412 214.173L756.412 211.653L764.152 211.653L764.152 214.173L756.412 214.173ZM757.852 202.455C756.7 204.129 755.242 205.479 753.46 206.505L754.288 207.513C755.08 207.009 755.836 206.451 756.538 205.821C757.312 206.505 758.158 207.117 759.076 207.657C757.168 208.413 754.756 209.007 751.858 209.475L752.344 210.627C755.584 210.069 758.266 209.313 760.39 208.341C762.622 209.421 765.16 210.051 768.04 210.267L768.328 209.097C765.898 208.917 763.702 208.449 761.74 207.675C763.126 206.883 764.188 205.983 764.926 204.957L764.926 203.913L758.284 203.913C758.572 203.535 758.842 203.139 759.112 202.725L757.852 202.455ZM760.408 207.081C759.292 206.523 758.248 205.857 757.294 205.065L757.348 205.011L763.378 205.011C762.64 205.767 761.65 206.469 760.408 207.081ZM767.428 200.907L760.786 200.907C760.57 200.367 760.372 199.863 760.156 199.431L758.734 199.647C758.968 200.025 759.184 200.439 759.4 200.907L752.812 200.907L752.812 204.309L754.126 204.309L754.126 202.077L766.114 202.077L766.114 204.309L767.428 204.309L767.428 200.907Z"/>
<path clip-path="url(#TextBounds_3)" d="M783.502 203.049L783.502 206.559L773.224 206.559L773.224 203.049L783.502 203.049ZM773.224 207.819L784.816 207.819L784.816 201.771L779.128 201.771C778.804 200.907 778.48 200.133 778.156 199.449L776.77 199.665C777.148 200.313 777.49 201.015 777.814 201.771L771.946 201.771L771.946 207.405C771.91 210.627 771.172 213.255 769.714 215.271L770.668 216.135C772.288 213.813 773.134 211.041 773.224 207.819Z"/>
<path clip-path="url(#TextBounds_3)" d="M788.416 201.411L788.416 214.263L792.88 214.263C794.896 214.263 796.444 213.669 797.524 212.499C798.55 211.383 799.072 209.817 799.072 207.837C799.072 205.821 798.586 204.255 797.632 203.175C796.588 201.987 795.058 201.411 793.024 201.411L788.416 201.411ZM789.892 202.689L792.79 202.689C794.482 202.689 795.706 203.121 796.498 204.003C797.236 204.831 797.614 206.109 797.614 207.837C797.614 209.511 797.2 210.789 796.408 211.653C795.562 212.535 794.302 212.985 792.628 212.985L789.892 212.985L789.892 202.689Z"/>
<path clip-path="url(#TextBounds_3)" d="M805.444 201.159C804.112 201.159 803.014 201.447 802.168 202.023C801.214 202.635 800.746 203.517 800.746 204.633C800.746 205.713 801.232 206.541 802.222 207.117C802.636 207.333 803.626 207.693 805.174 208.161C806.614 208.575 807.532 208.881 807.892 209.097C808.738 209.547 809.17 210.177 809.17 210.987C809.17 211.671 808.846 212.211 808.198 212.607C807.55 213.003 806.686 213.201 805.642 213.201C804.49 213.201 803.626 212.949 803.032 212.481C802.384 211.959 801.988 211.131 801.862 210.015L800.404 210.015C800.512 211.599 801.07 212.769 802.078 213.543C802.942 214.191 804.13 214.515 805.642 214.515C807.172 214.515 808.378 214.191 809.278 213.561C810.178 212.913 810.628 212.013 810.628 210.897C810.628 209.727 810.088 208.827 809.026 208.179C808.486 207.855 807.37 207.441 805.678 206.937C804.436 206.577 803.644 206.307 803.32 206.127C802.582 205.731 802.222 205.209 802.222 204.561C802.222 203.823 802.528 203.283 803.14 202.923C803.68 202.599 804.418 202.455 805.372 202.455C806.416 202.455 807.226 202.671 807.802 203.139C808.36 203.589 808.72 204.273 808.882 205.209L810.34 205.209C810.214 203.859 809.728 202.833 808.864 202.149C808.036 201.483 806.884 201.159 805.444 201.159Z"/>
<path clip-path="url(#TextBounds_3)" d="M812.5 201.411L812.5 214.263L813.976 214.263L813.976 209.007L817.738 209.007C820.69 209.007 822.184 207.729 822.184 205.191C822.184 202.671 820.708 201.411 817.756 201.411L812.5 201.411ZM813.976 202.689L817.666 202.689C818.692 202.689 819.448 202.887 819.952 203.319C820.456 203.697 820.708 204.327 820.708 205.191C820.708 206.055 820.456 206.685 819.97 207.099C819.466 207.513 818.71 207.729 817.666 207.729L813.976 207.729L813.976 202.689Z"/>
</g>
<path d="M382.184 241.267L485.283 241.267L485.283 278.04L382.184 278.04L382.184 241.267Z" fill="none" opacity="1" stroke="#000000" stroke-linecap="butt" stroke-linejoin="round" stroke-width="2"/>
<path d="M327.182 324.804L430.28 324.804L430.28 361.577L327.182 361.577L327.182 324.804Z" fill="none" opacity="1" stroke="#000000" stroke-linecap="butt" stroke-linejoin="round" stroke-width="2"/>
<path d="M453.603 323.667L556.701 323.667L556.701 360.439L453.603 360.439L453.603 323.667Z" fill="none" opacity="1" stroke="#000000" stroke-linecap="butt" stroke-linejoin="round" stroke-width="2"/>
<path d="M338.175 404.831L540.34 404.831L540.34 466.879L338.175 466.879L338.175 404.831Z" fill="none" opacity="1" stroke="#000000" stroke-linecap="butt" stroke-linejoin="round" stroke-width="2"/>
<path d="M388.464 515.486L491.562 515.486L491.562 552.259L388.464 552.259L388.464 515.486Z" fill="none" opacity="1" stroke="#000000" stroke-linecap="butt" stroke-linejoin="round" stroke-width="2"/>
<g opacity="1">
<path d="M385.108 318.244C390.451 314.076 435.425 278.992 435.425 278.992" fill="none" stroke="#000000" stroke-linecap="butt" stroke-linejoin="round" stroke-width="2"/>
<g fill="#000000" stroke="none">
<path d="M386.488 317.167L386.322 308.419L379.589 322.549L394.933 319.457L386.488 317.167Z" fill="#000000"/>
</g>
</g>
<g fill="#000000" opacity="1" stroke="none">
<path clip-path="url(#TextBounds_4)" d="M414.775 258.878C417.011 258.748 419.091 258.579 421.002 258.358C421.21 258.696 421.418 259.021 421.6 259.346L422.367 258.8C421.899 257.994 421.236 257.071 420.352 256.005L419.585 256.46C419.897 256.85 420.183 257.227 420.469 257.604C418.987 257.786 417.505 257.916 416.01 257.994C416.478 257.487 417.011 256.694 417.622 255.615L422.367 255.615L422.367 254.77L418.948 254.77C418.766 254.224 418.584 253.73 418.376 253.288L417.427 253.444C417.635 253.847 417.83 254.289 418.012 254.77L414.385 254.77L414.385 255.615L416.66 255.615C415.88 256.902 415.256 257.695 414.762 258.007C414.71 258.033 414.645 258.059 414.567 258.085L414.775 258.878ZM411.98 253.626L411.304 254.276C412.162 254.874 412.825 255.433 413.319 255.966L413.982 255.303C413.436 254.744 412.773 254.185 411.98 253.626ZM411.668 256.733L411.005 257.383C411.876 258.059 412.565 258.696 413.059 259.294L413.722 258.618C413.176 257.994 412.487 257.357 411.668 256.733ZM412.994 260.191C412.5 261.777 411.928 263.311 411.252 264.819L412.123 265.196C412.747 263.74 413.306 262.18 413.826 260.516L412.994 260.191ZM417.427 259.476L417.427 265.105L418.376 265.105L418.376 259.476L417.427 259.476ZM415.321 259.463C415.269 260.997 415.126 262.115 414.879 262.804C414.619 263.506 414.177 264.104 413.553 264.611L414.151 265.352C414.879 264.754 415.412 264.039 415.724 263.207C416.01 262.414 416.179 261.166 416.231 259.463L415.321 259.463ZM421.509 265.235C422.029 265.209 422.354 265.066 422.51 264.832C422.666 264.572 422.744 263.87 422.744 262.726L421.925 262.414C421.925 263.103 421.899 263.61 421.847 263.922C421.821 264.208 421.691 264.351 421.457 264.377L420.885 264.377C420.716 264.351 420.638 264.247 420.638 264.052L420.638 259.476L419.741 259.476L419.741 264.221C419.741 264.897 420.105 265.235 420.859 265.235L421.509 265.235Z"/>
<path clip-path="url(#TextBounds_4)" d="M425.266 258.891L425.266 262.206L429.296 262.206L429.296 262.934L424.941 262.934L424.941 263.558L429.296 263.558L429.296 264.325L423.966 264.325L423.966 265.053L435.588 265.053L435.588 264.325L430.232 264.325L430.232 263.558L434.639 263.558L434.639 262.934L430.232 262.934L430.232 262.206L434.314 262.206L434.314 258.891L425.266 258.891ZM433.417 261.621L430.232 261.621L430.232 260.828L433.417 260.828L433.417 261.621ZM429.296 261.621L426.163 261.621L426.163 260.828L429.296 260.828L429.296 261.621ZM426.163 260.282L426.163 259.476L429.296 259.476L429.296 260.282L426.163 260.282ZM430.232 259.476L433.417 259.476L433.417 260.282L430.232 260.282L430.232 259.476ZM425.552 253.652L425.552 256.863L434.041 256.863L434.041 253.652L425.552 253.652ZM433.131 256.304L426.462 256.304L426.462 255.537L433.131 255.537L433.131 256.304ZM426.462 254.978L426.462 254.224L433.131 254.224L433.131 254.978L426.462 254.978ZM423.953 257.539L423.953 258.241L435.601 258.241L435.601 257.539L423.953 257.539Z"/>
<path clip-path="url(#TextBounds_4)" d="M443.154 255.641L442.387 256.005C442.66 256.473 442.92 256.993 443.18 257.565L441.191 257.565L441.191 258.462L448.445 258.462L448.445 257.565L446.339 257.565C446.638 257.045 446.911 256.46 447.158 255.81L446.274 255.498C446.014 256.226 445.715 256.915 445.351 257.565L444.077 257.565C443.791 256.863 443.492 256.226 443.154 255.641ZM444.87 253.366L443.895 253.522C444.051 253.847 444.207 254.211 444.35 254.601L441.49 254.601L441.49 255.459L448.211 255.459L448.211 254.601L445.299 254.601C445.156 254.146 445.013 253.73 444.87 253.366ZM438.383 265.248C439.15 265.248 439.54 264.871 439.54 264.117L439.54 260.269C439.904 260.1 440.268 259.918 440.632 259.723L440.632 258.774C440.268 258.969 439.904 259.151 439.54 259.333L439.54 256.837L440.619 256.837L440.619 255.94L439.54 255.94L439.54 253.483L438.578 253.483L438.578 255.94L436.992 255.94L436.992 256.837L438.578 256.837L438.578 259.736C437.98 259.97 437.369 260.165 436.758 260.321L436.992 261.257C437.525 261.088 438.058 260.893 438.578 260.685L438.578 263.883C438.578 264.221 438.396 264.39 438.058 264.39C437.746 264.39 437.408 264.364 437.057 264.338L437.252 265.248L438.383 265.248ZM443.726 258.826C443.583 259.19 443.427 259.554 443.245 259.944L441.022 259.944L441.022 260.854L442.764 260.854C442.491 261.348 442.179 261.855 441.828 262.388C442.738 262.752 443.583 263.103 444.376 263.467C443.57 263.935 442.4 264.299 440.892 264.572L441.256 265.417C443.128 265.053 444.493 264.546 445.351 263.922C446.391 264.416 447.288 264.897 448.068 265.378L448.575 264.624C447.756 264.156 446.898 263.714 446.014 263.298C446.625 262.635 447.028 261.816 447.223 260.854L448.653 260.854L448.653 259.944L444.194 259.944C444.35 259.619 444.493 259.281 444.623 258.93L443.726 258.826ZM446.339 260.854C446.131 261.686 445.741 262.362 445.156 262.908C444.454 262.596 443.726 262.297 442.972 262.011C443.232 261.647 443.479 261.257 443.713 260.854L446.339 260.854Z"/>
<path clip-path="url(#TextBounds_4)" d="M455.205 256.46C454.373 259.918 452.566 262.57 449.784 264.39L450.343 265.183C453.073 263.415 454.867 260.867 455.725 257.552C455.79 257.708 455.855 257.89 455.933 258.098C457.272 261.53 458.988 263.896 461.094 265.17L461.679 264.416C459.625 263.129 458 260.932 456.778 257.825C455.972 255.719 454.997 254.25 453.84 253.444L453.06 253.938C453.892 254.536 454.607 255.368 455.205 256.46Z"/>
</g>
<g fill="#000000" opacity="1" stroke="none">
<path clip-path="url(#TextBounds_5)" d="M358.821 341.556L358.821 342.44L362.227 342.44L362.227 348.108C362.097 348.082 361.967 348.043 361.85 348.004C360.914 347.705 360.134 347.003 359.51 345.885C359.744 345.209 359.952 344.468 360.108 343.662L359.198 343.506C358.756 345.742 357.924 347.523 356.676 348.849L357.274 349.59C358.015 348.836 358.639 347.9 359.146 346.782C359.679 347.627 360.381 348.251 361.239 348.654C362.383 349.135 364.255 349.382 366.881 349.382L368.337 349.382L368.506 348.446C367.804 348.498 367.128 348.524 366.465 348.524C365.165 348.511 364.073 348.433 363.163 348.303L363.163 345.612L367.037 345.612L367.037 344.728L363.163 344.728L363.163 342.44L366.465 342.44L366.465 341.556L358.821 341.556ZM367.947 339.021L363.228 339.021C363.046 338.488 362.838 338.007 362.63 337.578L361.629 337.734C361.863 338.124 362.084 338.553 362.279 339.021L357.313 339.021L357.313 341.855L358.223 341.855L358.223 339.879L367.037 339.879L367.037 341.79L367.947 341.79L367.947 339.021Z"/>
<path clip-path="url(#TextBounds_5)" d="M373.251 342.323L373.251 346.873L378.048 346.873L378.048 342.323L373.251 342.323ZM377.138 345.989L374.161 345.989L374.161 343.207L377.138 343.207L377.138 345.989ZM374.785 337.656C374.642 338.332 374.421 338.969 374.109 339.593L370.534 339.593L370.534 349.59L371.47 349.59L371.47 340.49L379.894 340.49L379.894 348.056C379.894 348.433 379.699 348.628 379.335 348.628L377.437 348.589L377.697 349.538L379.647 349.538C380.427 349.538 380.83 349.109 380.83 348.264L380.83 339.593L375.097 339.593C375.383 339.034 375.604 338.436 375.76 337.786L374.785 337.656Z"/>
<path clip-path="url(#TextBounds_5)" d="M385.614 349.057L392.244 349.057L392.244 349.603L393.167 349.603L393.167 344.247L384.691 344.247L384.691 349.603L385.614 349.603L385.614 349.057ZM392.244 348.147L385.614 348.147L385.614 345.105L392.244 345.105L392.244 348.147ZM393.427 338.358L383.625 338.358L383.625 339.203L386.927 339.203C386.485 341.361 385.133 342.713 382.871 343.272L383.248 344.117C385.822 343.454 387.356 341.816 387.876 339.203L392.465 339.203C392.465 340.035 392.426 340.815 392.348 341.53C392.257 342.232 391.893 342.609 391.243 342.635C390.749 342.635 390.203 342.609 389.605 342.557L389.852 343.454C390.242 343.48 390.723 343.493 391.295 343.493C392.101 343.493 392.66 343.194 392.972 342.596C393.271 341.985 393.427 340.568 393.427 338.358Z"/>
<path clip-path="url(#TextBounds_5)" d="M399.134 341.322L399.134 345.95L404.152 345.95L404.152 341.322L399.134 341.322ZM403.268 345.157L400.005 345.157L400.005 342.128L403.268 342.128L403.268 345.157ZM406.843 338.475L396.417 338.475L396.417 349.408L397.327 349.408L397.327 348.849L405.933 348.849L405.933 349.408L406.843 349.408L406.843 338.475ZM397.327 348.017L397.327 339.307L405.933 339.307L405.933 348.017L397.327 348.017Z"/>
</g>
<g fill="#000000" opacity="1" stroke="none">
<path clip-path="url(#TextBounds_6)" d="M491.367 346.069L490.034 346.069L489.158 343.587C489.001 343.147 488.741 342.787 488.377 342.508C488.013 342.229 487.594 342.089 487.12 342.089L484.841 342.089L484.841 346.069L483.61 346.069L483.61 336.763L487.73 336.763C488.449 336.763 489.037 336.833 489.494 336.973C489.951 337.112 490.324 337.406 490.611 337.855C490.899 338.304 491.043 338.809 491.043 339.372C491.043 340.015 490.857 340.553 490.485 340.984C490.112 341.416 489.602 341.697 488.955 341.829L488.955 341.854C489.602 342.061 490.095 342.622 490.434 343.536L491.367 346.069ZM484.841 340.984L487.59 340.984C488.356 340.984 488.911 340.864 489.256 340.623C489.601 340.381 489.774 339.965 489.774 339.372C489.774 338.314 489.109 337.785 487.78 337.785L484.841 337.785L484.841 340.984Z"/>
<path clip-path="url(#TextBounds_6)" d="M499.612 337.868L496.534 337.868L496.534 346.069L495.296 346.069L495.296 337.868L492.243 337.868L492.243 336.763L499.612 336.763L499.612 337.868Z"/>
<path clip-path="url(#TextBounds_6)" d="M505.751 342.26L504.113 337.944L502.551 342.26L505.751 342.26ZM508.582 346.069L507.192 346.069L506.112 343.238L502.215 343.238L501.187 346.069L499.885 346.069L503.459 336.763L504.786 336.763L508.582 346.069Z"/>
<path clip-path="url(#TextBounds_6)" d="M516.551 335.448L516.551 336.293L513.405 336.293L513.405 337.06L516.551 337.06L516.551 337.931L513.925 337.931L513.925 338.685L516.551 338.685L516.551 339.569L513.041 339.569L513.041 340.349L520.997 340.349L520.997 339.569L517.448 339.569L517.448 338.685L520.204 338.685L520.204 337.931L517.448 337.931L517.448 337.06L520.672 337.06L520.672 336.293L517.448 336.293L517.448 335.448L516.551 335.448ZM514.926 343.625L519.125 343.625L519.125 344.574L514.926 344.574L514.926 343.625ZM519.125 342.897L514.926 342.897L514.926 341.935L519.125 341.935L519.125 342.897ZM514.926 345.302L519.125 345.302L519.125 346.043C519.125 346.342 518.956 346.498 518.644 346.498L517.604 346.459L517.825 347.291L518.917 347.291C519.645 347.291 520.022 346.94 520.022 346.238L520.022 341.168L514.029 341.168L514.029 347.369L514.926 347.369L514.926 345.302ZM510.688 335.591L510.025 336.228C510.961 336.93 511.702 337.593 512.248 338.217L512.885 337.567C512.287 336.904 511.559 336.241 510.688 335.591ZM509.115 339.426L509.115 340.323L510.974 340.323L510.974 345.484C510.974 345.705 510.87 345.9 510.675 346.082L511.039 346.914C511.845 346.329 512.625 345.653 513.353 344.899L513.106 343.911C512.664 344.366 512.261 344.769 511.871 345.133L511.871 339.426L509.115 339.426Z"/>
<path clip-path="url(#TextBounds_6)" d="M522.505 337.84L522.505 338.737L527.679 338.737L527.679 341.168C526.145 343.066 524.377 344.548 522.375 345.64L522.882 346.485C524.715 345.367 526.314 343.963 527.679 342.299L527.679 345.848C527.679 346.251 527.497 346.459 527.146 346.459C526.626 346.459 526.093 346.433 525.521 346.394L525.716 347.291L527.471 347.291C528.251 347.291 528.641 346.888 528.641 346.082L528.641 341.025C529.707 343.118 531.28 344.886 533.386 346.342L534.036 345.575C532.606 344.665 531.397 343.599 530.422 342.39C531.423 341.701 532.281 340.895 532.996 339.972L532.307 339.361C531.644 340.245 530.851 341.038 529.928 341.74C529.421 341.038 528.992 340.284 528.641 339.491L528.641 338.737L533.607 338.737L533.607 337.84L531.631 337.84L532.242 337.229C531.722 336.657 531.072 336.072 530.292 335.5L529.681 336.072C530.461 336.696 531.098 337.281 531.579 337.84L528.641 337.84L528.641 335.409L527.679 335.409L527.679 337.84L522.505 337.84ZM523.766 339.634L523.116 340.245C524.065 341.09 524.806 341.883 525.339 342.624L525.989 341.987C525.391 341.207 524.65 340.414 523.766 339.634Z"/>
</g>
<g fill="#000000" opacity="1" stroke="none">
<path clip-path="url(#TextBounds_7)" d="M426.347 538.957C426.789 538.957 427.114 538.853 427.322 538.658C427.556 538.424 427.712 537.761 427.803 536.695L426.919 536.409C426.88 537.228 426.802 537.722 426.672 537.904C426.568 538.034 426.412 538.112 426.178 538.112L424.215 538.112C423.877 538.112 423.721 537.943 423.721 537.618L423.721 535.954L425.97 535.954L425.97 532.535L417.949 532.535L417.949 535.954L420.289 535.954C420.003 536.63 419.665 537.124 419.275 537.436C418.69 537.904 417.624 538.242 416.064 538.424L416.428 539.295C418.222 539.009 419.418 538.567 420.029 537.982C420.497 537.553 420.913 536.877 421.264 535.954L422.785 535.954L422.785 537.813C422.785 538.567 423.162 538.957 423.942 538.957L426.347 538.957ZM419.002 529.142L419.613 530.702L416.389 530.702L416.389 531.521L427.517 531.521L427.517 530.702L424.293 530.702L424.904 529.142L426.841 529.142L426.841 528.336L422.512 528.336C422.369 527.92 422.213 527.53 422.057 527.192L421.043 527.348C421.225 527.647 421.407 527.972 421.563 528.336L416.987 528.336L416.987 529.142L419.002 529.142ZM420.588 530.702L419.977 529.142L423.929 529.142L423.305 530.702L420.588 530.702ZM425.06 535.135L418.859 535.135L418.859 533.354L425.06 533.354L425.06 535.135Z"/>
<path clip-path="url(#TextBounds_7)" d="M439.035 536.188L439.035 533.796L440.712 533.796L440.712 532.938L439.035 532.938L439.035 530.598L436.175 530.598C436.747 530.182 437.332 529.701 437.93 529.142L437.93 528.427L433.055 528.427C433.263 528.115 433.471 527.79 433.679 527.452L432.743 527.257C431.885 528.687 430.78 529.831 429.428 530.715L430.013 531.417C430.351 531.183 430.689 530.923 431.027 530.637L431.027 531.482L434.29 531.482L434.29 532.938L429.233 532.938L429.233 533.796L434.29 533.796L434.29 535.291L430.806 535.291L430.806 536.188L434.29 536.188L434.29 537.618C434.29 538.06 434.056 538.294 433.601 538.294C433.042 538.294 432.457 538.268 431.846 538.229L432.041 539.126L433.926 539.126C434.784 539.126 435.213 538.697 435.213 537.839L435.213 536.188L439.035 536.188ZM434.797 530.598L431.079 530.598C431.547 530.195 431.976 529.753 432.392 529.285L436.604 529.285C436.006 529.779 435.408 530.208 434.797 530.598ZM435.213 531.482L438.112 531.482L438.112 532.938L435.213 532.938L435.213 531.482ZM435.213 533.796L438.112 533.796L438.112 535.291L435.213 535.291L435.213 533.796Z"/>
<path clip-path="url(#TextBounds_7)" d="M443.637 531.781L445.483 531.781L445.483 533.926L443.637 533.926L443.637 531.781ZM445.483 530.923L443.637 530.923L443.637 528.687L445.483 528.687L445.483 530.923ZM443.624 534.797L445.483 534.797L445.483 537.982C445.483 538.268 445.314 538.411 444.976 538.411C444.716 538.411 444.43 538.398 444.131 538.385L444.352 539.191L445.249 539.191C445.977 539.191 446.341 538.879 446.341 538.281L446.341 527.842L442.792 527.842L442.792 534.108C442.766 535.941 442.506 537.449 441.986 538.619L442.662 539.243C443.221 538.073 443.546 536.591 443.624 534.797ZM448.304 530.663L450.059 530.663L450.059 533.809L447.342 533.809L447.342 534.68L450.059 534.68L450.059 537.904L446.848 537.904L446.848 538.788L453.842 538.788L453.842 537.904L450.969 537.904L450.969 534.68L453.439 534.68L453.439 533.809L450.969 533.809L450.969 530.663L453.465 530.663L453.465 529.792L450.969 529.792L450.969 527.322L450.059 527.322L450.059 529.792L448.499 529.792C448.603 529.246 448.668 528.687 448.694 528.102L447.862 527.998C447.784 529.662 447.355 531.17 446.601 532.509L447.277 533.107C447.719 532.353 448.07 531.547 448.304 530.663Z"/>
<path clip-path="url(#TextBounds_7)" d="M464.476 531.833L461.434 531.833L461.434 527.296L460.472 527.296L460.472 531.833L457.43 531.833L457.43 528.284L456.494 528.284L456.494 532.743L460.472 532.743L460.472 537.514L456.806 537.514L456.806 533.965L455.857 533.965L455.857 539.139L456.806 539.139L456.806 538.411L465.1 538.411L465.1 539.139L466.049 539.139L466.049 533.965L465.1 533.965L465.1 537.514L461.434 537.514L461.434 532.743L465.412 532.743L465.412 528.284L464.476 528.284L464.476 531.833Z"/>
</g>
<path d="M737.205 320.822L840.304 320.822L840.304 357.595L737.205 357.595L737.205 320.822Z" fill="none" opacity="1" stroke="#000000" stroke-linecap="butt" stroke-linejoin="round" stroke-width="2"/>
<g fill="#000000" opacity="1" stroke="none">
<path clip-path="url(#TextBounds_8)" d="M773.295 342.673L771.962 342.673L771.086 340.191C770.93 339.751 770.669 339.391 770.306 339.112C769.942 338.833 769.523 338.693 769.049 338.693L766.77 338.693L766.77 342.673L765.538 342.673L765.538 333.367L769.658 333.367C770.377 333.367 770.966 333.437 771.423 333.577C771.88 333.717 772.252 334.011 772.54 334.459C772.828 334.908 772.972 335.413 772.972 335.976C772.972 336.62 772.785 337.157 772.413 337.589C772.041 338.02 771.531 338.302 770.883 338.433L770.883 338.458C771.531 338.666 772.024 339.226 772.362 340.14L773.295 342.673ZM766.77 337.589L769.518 337.589C770.284 337.589 770.84 337.468 771.185 337.227C771.53 336.986 771.702 336.569 771.702 335.976C771.702 334.918 771.038 334.389 769.709 334.389L766.77 334.389L766.77 337.589Z"/>
<path clip-path="url(#TextBounds_8)" d="M781.541 334.472L778.462 334.472L778.462 342.673L777.224 342.673L777.224 334.472L774.171 334.472L774.171 333.367L781.541 333.367L781.541 334.472Z"/>
<path clip-path="url(#TextBounds_8)" d="M787.679 338.864L786.041 334.548L784.48 338.864L787.679 338.864ZM790.51 342.673L789.12 342.673L788.041 339.842L784.143 339.842L783.115 342.673L781.814 342.673L785.388 333.367L786.714 333.367L790.51 342.673Z"/>
<path clip-path="url(#TextBounds_8)" d="M794.992 333.367L797.943 333.367C801.104 333.367 802.685 334.901 802.685 337.969C802.685 341.105 801.104 342.673 797.943 342.673L794.992 342.673L794.992 333.367ZM796.223 341.569L797.918 341.569C799.268 341.569 800.188 341.254 800.679 340.626C801.17 339.998 801.415 339.112 801.415 337.969C801.415 336.856 801.171 335.995 800.682 335.386C800.193 334.777 799.272 334.472 797.918 334.472L796.223 334.472L796.223 341.569Z"/>
<path clip-path="url(#TextBounds_8)" d="M807.89 342.832C806.578 342.832 805.597 342.538 804.948 341.949C804.298 341.361 803.957 340.606 803.923 339.683L805.11 339.683C805.173 340.377 805.462 340.89 805.976 341.223C806.49 341.555 807.111 341.721 807.839 341.721C808.529 341.721 809.084 341.579 809.505 341.296C809.927 341.012 810.137 340.627 810.137 340.14C810.137 339.628 809.919 339.256 809.483 339.023C809.047 338.79 808.297 338.561 807.233 338.334C806.169 338.108 805.405 337.794 804.942 337.392C804.478 336.99 804.246 336.454 804.246 335.786C804.246 335.033 804.548 334.415 805.151 333.932C805.754 333.45 806.555 333.209 807.554 333.209C808.603 333.209 809.449 333.452 810.093 333.939C810.736 334.425 811.077 335.113 811.115 336.002L809.915 336.002C809.792 334.876 809.022 334.313 807.604 334.313C806.919 334.313 806.388 334.442 806.011 334.7C805.634 334.959 805.446 335.301 805.446 335.729C805.446 336.118 805.597 336.41 805.9 336.605C806.203 336.799 806.768 336.988 807.595 337.17C808.422 337.352 809.079 337.531 809.566 337.709C810.052 337.887 810.469 338.163 810.816 338.538C811.163 338.912 811.337 339.415 811.337 340.045C811.337 340.845 811.018 341.509 810.381 342.038C809.745 342.567 808.914 342.832 807.89 342.832Z"/>
<path clip-path="url(#TextBounds_8)" d="M813.051 333.367L816.523 333.367C817.285 333.367 817.922 333.438 818.437 333.58C818.951 333.722 819.358 334.029 819.659 334.5C819.959 334.972 820.109 335.5 820.109 336.084C820.109 337.024 819.811 337.737 819.214 338.223C818.618 338.71 817.754 338.953 816.624 338.953L814.282 338.953L814.282 342.673L813.051 342.673L813.051 333.367ZM814.282 337.849L816.637 337.849C817.428 337.849 817.992 337.701 818.329 337.405C818.665 337.108 818.833 336.681 818.833 336.122C818.833 335.75 818.74 335.42 818.554 335.132C818.368 334.844 818.132 334.662 817.846 334.586C817.561 334.51 817.149 334.472 816.612 334.472L814.282 334.472L814.282 337.849Z"/>
</g>
<g opacity="1">
<path d="M376.018 259.71C364.921 267.246 246.286 347.812 246.286 347.812" fill="none" stroke="#000000" stroke-linecap="butt" stroke-linejoin="round" stroke-width="2"/>
<g fill="#000000" stroke="none">
<path d="M374.57 260.693L374.159 269.434L381.809 255.778L366.294 257.852L374.57 260.693Z" fill="#000000"/>
</g>
</g>
</g>
</svg>
